<svg width="24" height="24" viewBox="0 0 24 24" fill="none" xmlns="http://www.w3.org/2000/svg">
<g id="Group 851">
<rect id="Rectangle 16354" width="24" height="24" fill="white"/>
<path id="Vector" d="M19.4969 11.1842V10.4359C19.4969 10.346 19.4969 10.2637 19.4969 10.2038C19.4969 6.5891 15.9644 5.05488 13.6844 4.68068L13.0919 4.58339C13.0919 4.58339 13.0244 4.58339 12.9944 4.56842L14.5394 3.54312C14.7719 3.39344 14.8544 3.13899 14.8544 2.84711C14.8694 2.08375 14.1944 1.5 13.4444 1.5C13.3469 1.5 13.2494 1.50748 13.1519 1.52994C12.7544 1.61226 12.3269 1.84426 11.9969 1.84426C11.6669 1.84426 11.2544 1.61974 10.8569 1.53742C10.7594 1.51497 10.6619 1.50748 10.5719 1.50748C9.74688 1.5 9.00438 2.24091 9.17688 3.0866C9.21438 3.28118 9.33438 3.45331 9.49938 3.56557L11.0069 4.56842L10.4294 4.65075C7.48188 5.07733 4.51938 6.5891 4.51938 10.3909C4.51938 10.3984 4.51938 10.4209 4.51938 10.4359C4.51938 10.4359 4.51188 10.4359 4.50438 10.4359V11.1842C4.50438 11.1842 4.50438 11.1842 4.51188 11.1842C4.50438 12.6137 4.48938 15.5474 4.51188 16.9394C4.54188 19.0873 5.68938 21.108 7.57188 22.036C7.84188 22.1707 8.09688 22.2605 8.32188 22.283C9.57438 22.4252 10.8269 22.5 12.0869 22.5C13.3469 22.5 14.5994 22.4252 15.8519 22.283C16.1069 22.253 16.3919 22.1408 16.6844 21.9836C18.4394 21.0331 19.4819 19.1023 19.4969 17.0592C19.5119 15.6372 19.4969 12.7858 19.4969 11.1768V11.1842ZM10.0244 2.51782C10.1594 2.35317 10.3694 2.25588 10.5794 2.25588C10.6244 2.25588 10.6694 2.25588 10.7144 2.27085C10.8269 2.2933 10.9694 2.34569 11.1119 2.39059C11.3969 2.48788 11.6819 2.59266 12.0044 2.59266C12.3269 2.59266 12.6194 2.48788 12.9044 2.39059C13.0544 2.3382 13.1894 2.2933 13.3094 2.26336C13.3544 2.25588 13.3994 2.2484 13.4444 2.2484C13.6319 2.2484 13.8119 2.32324 13.9394 2.45795C14.0144 2.53279 14.1044 2.66001 14.1044 2.84711C14.1044 2.8995 14.1044 2.92944 14.0969 2.9444L12.1169 4.26158C12.0794 4.29152 12.0344 4.29152 12.0044 4.29152C11.9744 4.29152 11.9369 4.29152 11.8919 4.26158L9.91188 2.9444C9.87438 2.75731 9.94938 2.60763 10.0244 2.51782ZM5.26938 10.3909C5.26938 6.88097 8.13438 5.73592 10.5419 5.39166L11.1794 5.30185C11.4569 5.26443 11.7344 5.24198 12.0119 5.24198C12.3344 5.24198 12.6569 5.27192 12.9719 5.32431L13.5644 5.4216C14.0969 5.5114 18.7469 6.38703 18.7469 10.2038V10.5631C18.1019 10.7876 17.6969 11.289 17.3294 11.7455C16.8869 12.2994 16.5044 12.7708 15.7469 12.7708C14.9894 12.7708 14.6069 12.2919 14.1644 11.7455C13.6694 11.1319 13.1144 10.4433 11.9969 10.4433C10.8794 10.4433 10.3244 11.1393 9.82938 11.753C9.38688 12.2994 9.00438 12.7783 8.24688 12.7783C7.48938 12.7783 7.10688 12.3068 6.66438 11.753C6.29688 11.2965 5.89938 10.8026 5.26188 10.578V10.4059L5.26938 10.3909ZM18.7469 17.0592C18.7319 18.9002 17.8019 20.5317 16.3244 21.3325C16.0169 21.4972 15.8369 21.5346 15.7619 21.5495C14.5469 21.6917 13.3094 21.7591 12.0869 21.7591C10.8644 21.7591 9.62688 21.6917 8.41188 21.5495C8.34438 21.5421 8.18688 21.5046 7.90938 21.3774C6.32688 20.5991 5.29188 18.8553 5.26938 16.9394C5.25438 15.6148 5.26938 12.8981 5.26938 11.4013C5.58438 11.5884 5.82438 11.8877 6.08688 12.217C6.58188 12.8307 7.13688 13.5267 8.25438 13.5267C9.37188 13.5267 9.92688 12.8307 10.4219 12.217C10.8644 11.6707 11.2469 11.1917 12.0044 11.1917C12.7619 11.1917 13.1444 11.6707 13.5869 12.217C14.0819 12.8307 14.6369 13.5192 15.7544 13.5192C16.8719 13.5192 17.4269 12.8232 17.9219 12.217C18.1919 11.8877 18.4394 11.5809 18.7544 11.3938C18.7544 13.0178 18.7619 15.7046 18.7544 17.0666L18.7469 17.0592Z" fill="black"/>
</g>
</svg>
