<svg width="26" height="26" viewBox="0 0 26 26" fill="none" xmlns="http://www.w3.org/2000/svg">
<rect width="26" height="26" fill="white"/>
<path d="M13.0313 5.18915C13.6158 4.30693 14.3639 3.57251 15.2851 3.02105C16.6949 2.17756 18.2124 1.8631 19.8441 2.06187C22.7901 2.42016 25.3294 4.72944 25.8748 7.80015C26.2623 9.98048 25.7519 11.9615 24.3193 13.649C23.1152 15.0674 21.8405 16.4252 20.5983 17.8109C19.4404 19.1024 18.286 20.3969 17.1271 21.6874C16.2734 22.6384 15.4146 23.5849 14.5604 24.5349C14.2044 24.9309 13.8504 25.3284 13.5 25.729C13.1984 26.0741 12.8622 26.0965 12.5524 25.7565C11.8002 24.9309 11.0598 24.0951 10.3128 23.2643C9.49816 22.3581 8.68205 21.4535 7.86593 20.5488C6.74967 19.3114 5.63139 18.0749 4.51716 16.8359C3.55529 15.7667 2.58276 14.7066 1.64171 13.6195C0.758051 12.5991 0.222269 11.3943 0.0617879 10.0574C-0.227179 7.65388 0.496508 5.58567 2.25215 3.90481C3.28766 2.913 4.5258 2.29376 5.93457 2.08786C8.17166 1.76066 10.1634 2.34422 11.8383 3.89104C12.2629 4.28297 12.625 4.7432 13.0313 5.18915ZM13.013 24.6434C13.5919 23.9982 14.1562 23.3678 14.7224 22.7388C15.8717 21.4616 17.0225 20.1865 18.1707 18.9082C19.1996 17.7625 20.228 16.6168 21.2529 15.467C22.0578 14.5644 22.8922 13.6852 23.6489 12.7434C24.6768 11.4646 25.0602 9.96723 24.8622 8.34039C24.6931 6.95003 24.0821 5.77017 23.0867 4.78091C21.199 2.90536 18.1443 2.54044 15.8752 3.93386C14.856 4.55972 14.0724 5.40219 13.5503 6.48318C13.4492 6.69266 13.3233 6.85626 13.0719 6.88276C12.7779 6.91385 12.6006 6.79968 12.432 6.46178C11.2056 4.00062 8.62466 2.68569 5.93 3.19943C2.87477 3.78198 0.760591 6.61213 1.12218 9.80771C1.27758 11.1812 1.90478 12.3423 2.83059 13.3524C3.55072 14.1383 4.26273 14.9313 4.97575 15.7239C6.32765 17.2269 7.67752 18.7324 9.02942 20.2359C10.1101 21.4377 11.1924 22.6374 12.2751 23.8372C12.5178 24.1058 12.7641 24.3713 13.013 24.6434Z" fill="#4D4D4D"/>
</svg>
