<svg width="28" height="28" viewBox="0 0 28 28" fill="none" xmlns="http://www.w3.org/2000/svg">
<path d="M14 27C21.1797 27 27 21.1797 27 14C27 6.8203 21.1797 1 14 1C6.8203 1 1 6.8203 1 14C1 21.1797 6.8203 27 14 27Z" fill="current" stroke="#4D4D4D" stroke-miterlimit="10"/>
<path d="M9.06675 19.9608C10.305 21.0937 11.8568 21.7858 13.479 22.0554L15.4475 22.3781C15.6576 22.4707 15.8397 22.6113 15.9686 22.8107C16.2046 23.1824 16.1741 23.709 15.9046 24.0525C15.5159 24.5249 14.8253 24.5446 14.2248 24.4961C11.7067 24.2424 9.22428 23.2483 7.34902 21.4721C5.47375 19.6958 4.2547 17.1286 4.26281 14.4843L4.26295 14.4723C4.26933 13.9459 4.27716 13.2986 4.72443 12.9598C5.05893 12.7097 5.53338 12.6724 5.8775 12.9018C6.53073 13.345 6.46592 14.297 6.54142 15.0084C6.73809 16.9136 7.68151 18.7028 9.06675 19.9608Z" stroke="#4D4D4D" fill="white"/>
</svg>
